# xmcd
#
# Track frame offsets:
#	150
#	11054
#	25562
#	38991
#	51399
#	60418
#	74287
#	89730
#	109764
#	123471
#	139789
#	150474
#	166888
#	178570
#	196485
#	210084
#	221688
#	230776
#	245598
#	258178
#	270634
#	282710
#	296046
#	315931
#	332386
#
# Disc length: 4623
#
# Revision: 1
# Processed by: cddbd v1.5.1PL0 Copyright (c) Steve Scherf et al.
# Submitted via: dBpowerAMP V4.0
# Normalized: r0:DSETVAR1,TDELIM( - )
#
DISCID=6f120d19
DTITLE=Various Artist - Derrière Les Barreaux - 25 Chansons
DYEAR=1900
DGENRE=Country
TTITLE0=Charles Martineau - Derrière Les Barreaux
TTITLE1=Paul-Henry Dallaire - À Bordeaux Thibodeau
TTITLE2=Michel Melançon - À St-Vincent
TTITLE3=André and Diane Leboeuf - Marqué Pour La Vie
TTITLE4=Marcel Martel - En Prison Maintenant
TTITLE5=Mado Reno and Gaétan Richard - Cher Détenu
TTITLE6=Hubert Leclerc - Le Temps En Prison
TTITLE7=Réginald Brault - Membres Du Jury
TTITLE8=André Hébert - Sorti De Cette Impasse
TTITLE9=Terry Hachey - La Chanson Du Prisonnier
TTITLE10=Régis Gagné - Personne N'A Rien Compris
TTITLE11=Aldei Duguay - La Porte S'Est Refermée
TTITLE12=Denis Rolland - Demain Je Sors D'Ici
TTITLE13=André Guitare - Je Finirai En Prison
TTITLE14=Gérald Poudrier - Pédro Le Bandit
TTITLE15=Michel Patry - Le Prisonnier
TTITLE16=Johnny Lee - Bonjour Nashville Tennessee
TTITLE17=Yvan Rolando - Le Train De Minuit
TTITLE18=Pitt - Après 20 Ans De Pénitencier
TTITLE19=Réginald Brault - Le Prisonnier Libéré
TTITLE20=André and Diane Guitare - La Lettre Du Prisonnier
TTITLE21=Lorenzo Martel - Le Prisonnier Non Coupable
TTITLE22=Gilles Gosselin - La Prison De Londres
TTITLE23=Gérald Poudrier - Si Dieu M'Avait Jugé
TTITLE24=André Proulx - Le Reel Du Pendu
EXTD=
EXTT0=
EXTT1=
EXTT2=
EXTT3=
EXTT4=
EXTT5=
EXTT6=
EXTT7=
EXTT8=
EXTT9=
EXTT10=
EXTT11=
EXTT12=
EXTT13=
EXTT14=
EXTT15=
EXTT16=
EXTT17=
EXTT18=
EXTT19=
EXTT20=
EXTT21=
EXTT22=
EXTT23=
EXTT24=
PLAYORDER=
